<svg width="80" height="80" viewBox="0 0 80 80" fill="none" xmlns="http://www.w3.org/2000/svg">
<path d="M26.0001 6.6665H54.0001C64.6668 6.6665 73.3334 15.3332 73.3334 25.9998V53.9998C73.3334 59.1274 71.2965 64.0449 67.6708 67.6706C64.0451 71.2963 59.1276 73.3332 54.0001 73.3332H26.0001C15.3334 73.3332 6.66675 64.6665 6.66675 53.9998V25.9998C6.66675 20.8723 8.70365 15.9548 12.3294 12.3291C15.9551 8.7034 20.8726 6.6665 26.0001 6.6665ZM25.3334 13.3332C22.1508 13.3332 19.0986 14.5975 16.8481 16.8479C14.5977 19.0983 13.3334 22.1506 13.3334 25.3332V54.6665C13.3334 61.2998 18.7001 66.6665 25.3334 66.6665H54.6667C57.8493 66.6665 60.9016 65.4022 63.152 63.1518C65.4025 60.9014 66.6668 57.8491 66.6668 54.6665V25.3332C66.6668 18.6998 61.3001 13.3332 54.6667 13.3332H25.3334ZM57.5001 18.3332C58.6052 18.3332 59.665 18.7722 60.4464 19.5536C61.2278 20.335 61.6668 21.3948 61.6668 22.4998C61.6668 23.6049 61.2278 24.6647 60.4464 25.4461C59.665 26.2275 58.6052 26.6665 57.5001 26.6665C56.395 26.6665 55.3352 26.2275 54.5538 25.4461C53.7724 24.6647 53.3334 23.6049 53.3334 22.4998C53.3334 21.3948 53.7724 20.335 54.5538 19.5536C55.3352 18.7722 56.395 18.3332 57.5001 18.3332ZM40.0001 23.3332C44.4204 23.3332 48.6596 25.0891 51.7852 28.2147C54.9108 31.3403 56.6668 35.5796 56.6668 39.9998C56.6668 44.4201 54.9108 48.6593 51.7852 51.7849C48.6596 54.9106 44.4204 56.6665 40.0001 56.6665C35.5798 56.6665 31.3406 54.9106 28.215 51.7849C25.0894 48.6593 23.3334 44.4201 23.3334 39.9998C23.3334 35.5796 25.0894 31.3403 28.215 28.2147C31.3406 25.0891 35.5798 23.3332 40.0001 23.3332ZM40.0001 29.9998C37.3479 29.9998 34.8044 31.0534 32.929 32.9288C31.0536 34.8041 30.0001 37.3477 30.0001 39.9998C30.0001 42.652 31.0536 45.1955 32.929 47.0709C34.8044 48.9463 37.3479 49.9998 40.0001 49.9998C42.6522 49.9998 45.1958 48.9463 47.0712 47.0709C48.9465 45.1955 50.0001 42.652 50.0001 39.9998C50.0001 37.3477 48.9465 34.8041 47.0712 32.9288C45.1958 31.0534 42.6522 29.9998 40.0001 29.9998Z" fill="white"/>
</svg>
